# xmcd
#
# Track frame offsets:
#	150
#	11191
#	24135
#	41019
#	53162
#	65867
#	82682
#	101267
#	114985
#	129151
#	138403
#	148677
#	161944
#
# Disc length: 2352 seconds
#
# Revision: 0
# Processed by: cddbd v1.4PL0 Copyright (c) Steve Scherf et al.
# Submitted via: dBpowerAMP V4.0
#
DISCID=a7092e0d
DTITLE=Ann Tayler - On The Road Again
DYEAR=2003
DGENRE=country
TTITLE0=Act Naturally
TTITLE1=I Love You Because
TTITLE2=Love Me Tender
TTITLE3=On The Road Again
TTITLE4=I Fall To Pieces
TTITLE5=Welcome To My World
TTITLE6=Take Me Home, Country Roads
TTITLE7=Top Of The World
TTITLE8=She`s Got You
TTITLE9=Back In Babys Arms
TTITLE10=Walking After Midnight
TTITLE11=Cryin` Time
TTITLE12=Crazy
EXTD=
EXTT0=
EXTT1=
EXTT2=
EXTT3=
EXTT4=
EXTT5=
EXTT6=
EXTT7=
EXTT8=
EXTT9=
EXTT10=
EXTT11=
EXTT12=
PLAYORDER=
